<mxfile host="app.diagrams.net" modified="2022-02-26T12:02:39.835Z" agent="5.0 (Windows)" etag="LViDY2Om395ZfJvlTd-a" version="14.8.0" type="github">
  <diagram id="IWNLq4ESM5C8KsaO1co3" name="Page-1">
    <mxGraphModel dx="1422" dy="780" grid="1" gridSize="10" guides="1" tooltips="1" connect="1" arrows="1" fold="1" page="1" pageScale="1" pageWidth="1169" pageHeight="827" math="0" shadow="0">
      <root>
        <mxCell id="0" />
        <mxCell id="1" parent="0" />
        <mxCell id="yUXTS7mJoUBiHzq0LXna-3" value="" style="rounded=0;whiteSpace=wrap;html=1;" vertex="1" parent="1">
          <mxGeometry x="240" y="160" width="280" height="370" as="geometry" />
        </mxCell>
        <mxCell id="yUXTS7mJoUBiHzq0LXna-9" value="&lt;div&gt;buildings &lt;br&gt;&lt;/div&gt;&lt;div&gt;&lt;br&gt;&lt;/div&gt;" style="rounded=0;whiteSpace=wrap;html=1;labelPosition=left;verticalLabelPosition=middle;align=right;verticalAlign=top;" vertex="1" parent="1">
          <mxGeometry x="330" y="260" width="150" height="50" as="geometry" />
        </mxCell>
        <mxCell id="yUXTS7mJoUBiHzq0LXna-2" value="" style="rounded=0;whiteSpace=wrap;html=1;" vertex="1" parent="1">
          <mxGeometry x="40" y="160" width="120" height="300" as="geometry" />
        </mxCell>
        <mxCell id="yUXTS7mJoUBiHzq0LXna-4" value="Mission build" style="text;html=1;strokeColor=none;fillColor=none;align=center;verticalAlign=middle;whiteSpace=wrap;rounded=0;" vertex="1" parent="1">
          <mxGeometry x="330" y="120" width="100" height="20" as="geometry" />
        </mxCell>
        <mxCell id="yUXTS7mJoUBiHzq0LXna-6" value="objectives" style="rounded=0;whiteSpace=wrap;html=1;labelPosition=left;verticalLabelPosition=middle;align=right;verticalAlign=top;" vertex="1" parent="1">
          <mxGeometry x="330" y="170" width="100" height="70" as="geometry" />
        </mxCell>
        <mxCell id="yUXTS7mJoUBiHzq0LXna-7" value="&lt;div&gt;player insert&lt;br&gt;&lt;/div&gt;&lt;div&gt;player extract&lt;/div&gt;&lt;div&gt;tasks&lt;/div&gt;&lt;div&gt;markers&lt;br&gt;&lt;/div&gt;" style="rounded=0;whiteSpace=wrap;html=1;verticalAlign=top;align=left;" vertex="1" parent="1">
          <mxGeometry x="330" y="170" width="150" height="70" as="geometry" />
        </mxCell>
        <mxCell id="yUXTS7mJoUBiHzq0LXna-8" value="&lt;div&gt;building compositions&lt;/div&gt;&lt;div&gt;misc. assets&lt;br&gt;&lt;/div&gt;" style="rounded=0;whiteSpace=wrap;html=1;verticalAlign=top;align=left;" vertex="1" parent="1">
          <mxGeometry x="330" y="260" width="150" height="50" as="geometry" />
        </mxCell>
        <mxCell id="yUXTS7mJoUBiHzq0LXna-10" value="IA" style="rounded=0;whiteSpace=wrap;html=1;labelPosition=left;verticalLabelPosition=middle;align=right;verticalAlign=top;" vertex="1" parent="1">
          <mxGeometry x="330" y="330" width="150" height="70" as="geometry" />
        </mxCell>
        <mxCell id="yUXTS7mJoUBiHzq0LXna-11" value="" style="rounded=0;whiteSpace=wrap;html=1;verticalAlign=top;align=left;" vertex="1" parent="1">
          <mxGeometry x="330" y="330" width="150" height="70" as="geometry" />
        </mxCell>
        <mxCell id="yUXTS7mJoUBiHzq0LXna-14" value="Init" style="text;html=1;strokeColor=none;fillColor=none;align=center;verticalAlign=middle;whiteSpace=wrap;rounded=0;" vertex="1" parent="1">
          <mxGeometry x="80" y="120" width="40" height="20" as="geometry" />
        </mxCell>
        <mxCell id="yUXTS7mJoUBiHzq0LXna-15" value="Server" style="rounded=0;whiteSpace=wrap;html=1;align=center;verticalAlign=bottom;labelPosition=center;verticalLabelPosition=top;" vertex="1" parent="1">
          <mxGeometry x="40" y="180" width="120" height="60" as="geometry" />
        </mxCell>
        <mxCell id="yUXTS7mJoUBiHzq0LXna-17" value="&lt;div&gt;set mission type&lt;/div&gt;&lt;div&gt;set date/time&lt;/div&gt;&lt;div&gt;set weather&lt;br&gt;&lt;/div&gt;" style="rounded=0;whiteSpace=wrap;html=1;align=left;verticalAlign=top;" vertex="1" parent="1">
          <mxGeometry x="40" y="180" width="120" height="60" as="geometry" />
        </mxCell>
      </root>
    </mxGraphModel>
  </diagram>
</mxfile>
